<mxfile host="65bd71144e">
    <diagram name="Page-1" id="2cc2dc42-3aac-f2a9-1cec-7a8b7cbee084">
        <mxGraphModel dx="687" dy="449" grid="1" gridSize="10" guides="1" tooltips="1" connect="1" arrows="1" fold="1" page="1" pageScale="1" pageWidth="10000" pageHeight="10000" background="none" math="0" shadow="0">
            <root>
                <mxCell id="0"/>
                <mxCell id="1" parent="0"/>
                <mxCell id="XVaBbjTai6L_YX0A8KyG-26" value="" style="group" parent="1" vertex="1" connectable="0">
                    <mxGeometry x="1420" y="110" width="420" height="938" as="geometry"/>
                </mxCell>
                <mxCell id="XVaBbjTai6L_YX0A8KyG-1" value="" style="strokeWidth=1;shadow=0;dashed=0;align=center;html=1;shape=mxgraph.mockup.containers.browserWindow;rSize=0;strokeColor=#666666;mainText=,;recursiveResize=0;rounded=0;labelBackgroundColor=none;fontFamily=Verdana;fontSize=12;container=0;" parent="XVaBbjTai6L_YX0A8KyG-26" vertex="1">
                    <mxGeometry y="19" width="420" height="900" as="geometry"/>
                </mxCell>
                <mxCell id="XVaBbjTai6L_YX0A8KyG-2" value="&lt;span style=&quot;font-size: 24px&quot;&gt;&lt;font color=&quot;#f7f7f7&quot;&gt;/index&lt;/font&gt;&lt;br&gt;&lt;/span&gt;" style="strokeWidth=1;shadow=0;dashed=0;align=center;html=1;shape=mxgraph.mockup.containers.anchor;fontSize=17;fontColor=#666666;align=left;" parent="XVaBbjTai6L_YX0A8KyG-26" vertex="1">
                    <mxGeometry x="140" y="80" width="110" height="26" as="geometry"/>
                </mxCell>
                <mxCell id="16" value="" style="rounded=0;whiteSpace=wrap;html=1;fontSize=24;" parent="XVaBbjTai6L_YX0A8KyG-26" vertex="1">
                    <mxGeometry y="139" width="420" height="50" as="geometry"/>
                </mxCell>
                <mxCell id="15" value="App Name" style="text;html=1;strokeColor=none;fillColor=none;align=center;verticalAlign=middle;whiteSpace=wrap;rounded=0;fontSize=24;" parent="XVaBbjTai6L_YX0A8KyG-26" vertex="1">
                    <mxGeometry x="127.5" y="149" width="165" height="30" as="geometry"/>
                </mxCell>
                <mxCell id="18" value="" style="rounded=1;whiteSpace=wrap;html=1;fontSize=24;" parent="XVaBbjTai6L_YX0A8KyG-26" vertex="1">
                    <mxGeometry x="20" y="230" width="380" height="220" as="geometry"/>
                </mxCell>
                <mxCell id="19" value="Please enter your name" style="text;html=1;strokeColor=none;fillColor=none;align=center;verticalAlign=middle;whiteSpace=wrap;rounded=0;fontSize=24;" parent="XVaBbjTai6L_YX0A8KyG-26" vertex="1">
                    <mxGeometry x="50" y="260" width="320" height="50" as="geometry"/>
                </mxCell>
                <mxCell id="21" value="Text Input" style="rounded=0;whiteSpace=wrap;html=1;fontSize=24;" parent="XVaBbjTai6L_YX0A8KyG-26" vertex="1">
                    <mxGeometry x="80" y="330" width="250" height="40" as="geometry"/>
                </mxCell>
                <mxCell id="22" value="Go!" style="rounded=1;whiteSpace=wrap;html=1;fontSize=24;" parent="XVaBbjTai6L_YX0A8KyG-26" vertex="1">
                    <mxGeometry x="120" y="390" width="160" height="40" as="geometry"/>
                </mxCell>
                <mxCell id="3" value="" style="group" parent="1" vertex="1" connectable="0">
                    <mxGeometry x="1960" y="110" width="420" height="938" as="geometry"/>
                </mxCell>
                <mxCell id="4" value="" style="strokeWidth=1;shadow=0;dashed=0;align=center;html=1;shape=mxgraph.mockup.containers.browserWindow;rSize=0;strokeColor=#666666;mainText=,;recursiveResize=0;rounded=0;labelBackgroundColor=none;fontFamily=Verdana;fontSize=12;container=0;" parent="3" vertex="1">
                    <mxGeometry y="38" width="420" height="900" as="geometry"/>
                </mxCell>
                <mxCell id="5" value="WelcomePage" style="strokeWidth=1;shadow=0;dashed=0;align=center;html=1;shape=mxgraph.mockup.containers.anchor;fontSize=25;fontColor=#666666;align=left;" parent="3" vertex="1">
                    <mxGeometry width="190" height="26" as="geometry"/>
                </mxCell>
                <mxCell id="20" value="Welcome &amp;lt;name&amp;gt;!&lt;br&gt;&lt;br&gt;Do you think you're an expert?&amp;nbsp; Test your knowledge by answering &amp;lt;number&amp;gt; questions on &amp;lt;categories&amp;gt;.&amp;nbsp;" style="rounded=1;whiteSpace=wrap;html=1;fontSize=24;" parent="3" vertex="1">
                    <mxGeometry x="20" y="230" width="380" height="220" as="geometry"/>
                </mxCell>
                <mxCell id="29" value="Go!" style="rounded=1;whiteSpace=wrap;html=1;fontSize=24;" parent="3" vertex="1">
                    <mxGeometry x="130" y="480" width="160" height="40" as="geometry"/>
                </mxCell>
                <mxCell id="32" value="App Name" style="rounded=0;whiteSpace=wrap;html=1;fontSize=24;" parent="3" vertex="1">
                    <mxGeometry y="150" width="420" height="50" as="geometry"/>
                </mxCell>
                <mxCell id="6" value="" style="group" parent="1" vertex="1" connectable="0">
                    <mxGeometry x="4700" y="150" width="420" height="957" as="geometry"/>
                </mxCell>
                <mxCell id="7" value="" style="strokeWidth=1;shadow=0;dashed=0;align=center;html=1;shape=mxgraph.mockup.containers.browserWindow;rSize=0;strokeColor=#666666;mainText=,;recursiveResize=0;rounded=0;labelBackgroundColor=none;fontFamily=Verdana;fontSize=12;container=0;" parent="6" vertex="1">
                    <mxGeometry y="38" width="420" height="900" as="geometry"/>
                </mxCell>
                <mxCell id="8" value="&lt;font style=&quot;font-size: 24px&quot;&gt;End of Question Round&lt;/font&gt;" style="strokeWidth=1;shadow=0;dashed=0;align=center;html=1;shape=mxgraph.mockup.containers.anchor;fontSize=17;fontColor=#666666;align=left;" parent="6" vertex="1">
                    <mxGeometry x="100" width="240" height="40" as="geometry"/>
                </mxCell>
                <mxCell id="34" value="Congratulations you scored:&lt;br&gt;&amp;nbsp;N out of N" style="rounded=1;whiteSpace=wrap;html=1;fontSize=24;" parent="6" vertex="1">
                    <mxGeometry x="30" y="170" width="360" height="240" as="geometry"/>
                </mxCell>
                <mxCell id="64" value="&lt;font style=&quot;font-size: 40px&quot;&gt;CSS&lt;span style=&quot;white-space: pre&quot;&gt;&#9;&lt;/span&gt;&lt;br&gt;3 / 2&lt;br&gt;&lt;/font&gt;" style="rounded=1;whiteSpace=wrap;html=1;verticalAlign=top;" parent="6" vertex="1">
                    <mxGeometry x="40" y="427.5" width="350" height="132.5" as="geometry"/>
                </mxCell>
                <mxCell id="67" value="&lt;font style=&quot;font-size: 40px&quot;&gt;React&lt;br&gt;3 / 2&lt;br&gt;&lt;/font&gt;" style="rounded=1;whiteSpace=wrap;html=1;verticalAlign=top;" parent="6" vertex="1">
                    <mxGeometry x="40" y="759" width="350" height="132.5" as="geometry"/>
                </mxCell>
                <mxCell id="68" value="&lt;font style=&quot;font-size: 40px&quot;&gt;Javascript&lt;br&gt;3 / 2&lt;br&gt;&lt;/font&gt;" style="rounded=1;whiteSpace=wrap;html=1;verticalAlign=top;" parent="6" vertex="1">
                    <mxGeometry x="30" y="590" width="350" height="132.5" as="geometry"/>
                </mxCell>
                <mxCell id="9" value="" style="group;" parent="1" connectable="0" vertex="1">
                    <mxGeometry x="2540" y="70" width="420" height="938" as="geometry"/>
                </mxCell>
                <mxCell id="10" value="" style="strokeWidth=1;shadow=0;dashed=0;align=center;html=1;shape=mxgraph.mockup.containers.browserWindow;rSize=0;strokeColor=#666666;mainText=,;recursiveResize=0;rounded=0;labelBackgroundColor=none;fontFamily=Verdana;fontSize=12;container=0;" parent="9" vertex="1">
                    <mxGeometry y="38" width="420" height="900" as="geometry"/>
                </mxCell>
                <mxCell id="11" value="TrueFalse" style="strokeWidth=1;shadow=0;dashed=0;align=center;html=1;shape=mxgraph.mockup.containers.anchor;fontSize=17;fontColor=#666666;align=left;" parent="9" vertex="1">
                    <mxGeometry width="110" height="26" as="geometry"/>
                </mxCell>
                <mxCell id="26" value="&lt;font style=&quot;font-size: 24px&quot;&gt;Category&lt;/font&gt;" style="rounded=1;whiteSpace=wrap;html=1;" parent="9" vertex="1">
                    <mxGeometry x="20" y="160" width="360" height="100" as="geometry"/>
                </mxCell>
                <mxCell id="30" value="Statement" style="rounded=1;whiteSpace=wrap;html=1;fontSize=24;" parent="9" vertex="1">
                    <mxGeometry x="20" y="280" width="350" height="210" as="geometry"/>
                </mxCell>
                <mxCell id="33" value="True" style="rounded=1;whiteSpace=wrap;html=1;fontSize=24;fillColor=#0050ef;fontColor=#ffffff;strokeColor=#001DBC;" parent="9" vertex="1">
                    <mxGeometry x="40" y="520" width="310" height="110" as="geometry"/>
                </mxCell>
                <mxCell id="39" value="False" style="rounded=1;whiteSpace=wrap;html=1;fontSize=24;fillColor=#0050ef;fontColor=#ffffff;strokeColor=#001DBC;" parent="9" vertex="1">
                    <mxGeometry x="40" y="660" width="310" height="100" as="geometry"/>
                </mxCell>
                <mxCell id="23" value="" style="group" parent="1" connectable="0" vertex="1">
                    <mxGeometry x="3080" y="90" width="420" height="938" as="geometry"/>
                </mxCell>
                <mxCell id="24" value="" style="strokeWidth=1;shadow=0;dashed=0;align=center;html=1;shape=mxgraph.mockup.containers.browserWindow;rSize=0;strokeColor=#666666;mainText=,;recursiveResize=0;rounded=0;labelBackgroundColor=none;fontFamily=Verdana;fontSize=12;container=0;" parent="23" vertex="1">
                    <mxGeometry y="38" width="420" height="900" as="geometry"/>
                </mxCell>
                <mxCell id="25" value="Answer" style="strokeWidth=1;shadow=0;dashed=0;align=center;html=1;shape=mxgraph.mockup.containers.anchor;fontSize=17;fontColor=#666666;align=left;" parent="23" vertex="1">
                    <mxGeometry width="110" height="26" as="geometry"/>
                </mxCell>
                <mxCell id="36" value="&lt;font style=&quot;font-size: 24px&quot;&gt;Category&lt;/font&gt;" style="rounded=1;whiteSpace=wrap;html=1;" parent="23" vertex="1">
                    <mxGeometry x="30" y="140" width="360" height="100" as="geometry"/>
                </mxCell>
                <mxCell id="37" value="Statement correct answer revealed" style="rounded=1;whiteSpace=wrap;html=1;fontSize=24;" parent="23" vertex="1">
                    <mxGeometry x="30" y="260" width="350" height="210" as="geometry"/>
                </mxCell>
                <mxCell id="38" value="Answer, rolling score?" style="rounded=1;whiteSpace=wrap;html=1;fontSize=24;" parent="23" vertex="1">
                    <mxGeometry x="50" y="500" width="310" height="230" as="geometry"/>
                </mxCell>
                <mxCell id="40" value="Next question" style="rounded=1;whiteSpace=wrap;html=1;fontSize=24;" parent="23" vertex="1">
                    <mxGeometry x="50" y="760" width="310" height="100" as="geometry"/>
                </mxCell>
                <mxCell id="41" value="" style="group" parent="1" connectable="0" vertex="1">
                    <mxGeometry x="3700" y="140" width="420" height="938" as="geometry"/>
                </mxCell>
                <mxCell id="42" value="" style="strokeWidth=1;shadow=0;dashed=0;align=center;html=1;shape=mxgraph.mockup.containers.browserWindow;rSize=0;strokeColor=#666666;mainText=,;recursiveResize=0;rounded=0;labelBackgroundColor=none;fontFamily=Verdana;fontSize=12;container=0;" parent="41" vertex="1">
                    <mxGeometry y="10" width="420" height="900" as="geometry"/>
                </mxCell>
                <mxCell id="43" value="Multiple Choice" style="strokeWidth=1;shadow=0;dashed=0;align=center;html=1;shape=mxgraph.mockup.containers.anchor;fontSize=17;fontColor=#666666;align=left;" parent="41" vertex="1">
                    <mxGeometry width="110" height="26" as="geometry"/>
                </mxCell>
                <mxCell id="44" value="&lt;font style=&quot;font-size: 24px&quot;&gt;Category&lt;/font&gt;" style="rounded=1;whiteSpace=wrap;html=1;" parent="41" vertex="1">
                    <mxGeometry x="20" y="160" width="360" height="100" as="geometry"/>
                </mxCell>
                <mxCell id="45" value="Question" style="rounded=1;whiteSpace=wrap;html=1;fontSize=24;" parent="41" vertex="1">
                    <mxGeometry x="20" y="280" width="350" height="200" as="geometry"/>
                </mxCell>
                <mxCell id="46" value="Option 1" style="rounded=1;whiteSpace=wrap;html=1;fontSize=24;" parent="41" vertex="1">
                    <mxGeometry x="40" y="490" width="310" height="80" as="geometry"/>
                </mxCell>
                <mxCell id="47" value="Option 2" style="rounded=1;whiteSpace=wrap;html=1;fontSize=24;" parent="41" vertex="1">
                    <mxGeometry x="40" y="580" width="310" height="80" as="geometry"/>
                </mxCell>
                <mxCell id="56" value="Option 3" style="rounded=1;whiteSpace=wrap;html=1;fontSize=24;" parent="41" vertex="1">
                    <mxGeometry x="40" y="670" width="310" height="80" as="geometry"/>
                </mxCell>
                <mxCell id="57" value="Option 4" style="rounded=1;whiteSpace=wrap;html=1;fontSize=24;" parent="41" vertex="1">
                    <mxGeometry x="40" y="760" width="310" height="80" as="geometry"/>
                </mxCell>
                <mxCell id="48" value="" style="group" parent="1" connectable="0" vertex="1">
                    <mxGeometry x="4190" y="140" width="420" height="938" as="geometry"/>
                </mxCell>
                <mxCell id="49" value="" style="strokeWidth=1;shadow=0;dashed=0;align=center;html=1;shape=mxgraph.mockup.containers.browserWindow;rSize=0;strokeColor=#666666;mainText=,;recursiveResize=0;rounded=0;labelBackgroundColor=none;fontFamily=Verdana;fontSize=12;container=0;" parent="48" vertex="1">
                    <mxGeometry y="38" width="420" height="900" as="geometry"/>
                </mxCell>
                <mxCell id="50" value="Answer" style="strokeWidth=1;shadow=0;dashed=0;align=center;html=1;shape=mxgraph.mockup.containers.anchor;fontSize=17;fontColor=#666666;align=left;" parent="48" vertex="1">
                    <mxGeometry width="110" height="26" as="geometry"/>
                </mxCell>
                <mxCell id="51" value="&lt;font style=&quot;font-size: 24px&quot;&gt;Category&lt;/font&gt;" style="rounded=1;whiteSpace=wrap;html=1;" parent="48" vertex="1">
                    <mxGeometry x="30" y="140" width="360" height="100" as="geometry"/>
                </mxCell>
                <mxCell id="52" value="Question correct answer revealed" style="rounded=1;whiteSpace=wrap;html=1;fontSize=24;" parent="48" vertex="1">
                    <mxGeometry x="30" y="260" width="350" height="210" as="geometry"/>
                </mxCell>
                <mxCell id="53" value="Answer, rolling score?" style="rounded=1;whiteSpace=wrap;html=1;fontSize=24;" parent="48" vertex="1">
                    <mxGeometry x="50" y="500" width="310" height="230" as="geometry"/>
                </mxCell>
                <mxCell id="54" value="Next question" style="rounded=1;whiteSpace=wrap;html=1;fontSize=24;" parent="48" vertex="1">
                    <mxGeometry x="50" y="760" width="310" height="100" as="geometry"/>
                </mxCell>
            </root>
        </mxGraphModel>
    </diagram>
</mxfile>